REM DIRINDEX 1\2,1\3
REM DIRNAME folder01,folder02,folder03
TITLE ""
FILE "3041-3060.mp3" MP3
  TRACK 01 AUDIO
    TITLE "0:"
    INDEX 01 00:00:00
  TRACK 02 AUDIO
    TITLE "2:cjc039_5081"
    INDEX 01 00:00:23
  TRACK 03 AUDIO
    TITLE "0:"
    INDEX 01 00:01:15
  TRACK 04 AUDIO
    TITLE "3:cjc039_5082"
    INDEX 01 00:01:73
  TRACK 05 AUDIO
    TITLE "0:"
    INDEX 01 00:05:14
  TRACK 06 AUDIO
    TITLE "2:cjc039_5083"
    INDEX 01 00:06:59
  TRACK 07 AUDIO
    TITLE "0:"
    INDEX 01 00:08:11
  TRACK 08 AUDIO
    TITLE "3:cjc039_5084"
    INDEX 01 00:08:56
  TRACK 09 AUDIO
    TITLE "0:"
    INDEX 01 00:13:02
  TRACK 10 AUDIO
    TITLE "2:cjc039_5085"
    INDEX 01 00:14:41
  TRACK 11 AUDIO
    TITLE "0:"
    INDEX 01 00:15:56
  TRACK 12 AUDIO
    TITLE "3:cjc039_5086"
    INDEX 01 00:16:30
  TRACK 13 AUDIO
    TITLE "0:"
    INDEX 01 00:19:56
  TRACK 14 AUDIO
    TITLE "2:cjc039_5087"
    INDEX 01 00:21:27
  TRACK 15 AUDIO
    TITLE "0:"
    INDEX 01 00:22:42
  TRACK 16 AUDIO
    TITLE "3:cjc039_5088"
    INDEX 01 00:23:12
  TRACK 17 AUDIO
    TITLE "0:"
    INDEX 01 00:27:36
  TRACK 18 AUDIO
    TITLE "2:cjc039_5089"
    INDEX 01 00:29:09
  TRACK 19 AUDIO
    TITLE "0:"
    INDEX 01 00:30:08
  TRACK 20 AUDIO
    TITLE "3:cjc039_5090"
    INDEX 01 00:30:52
  TRACK 21 AUDIO
    TITLE "0:"
    INDEX 01 00:34:30
  TRACK 22 AUDIO
    TITLE "2:cjc039_5091"
    INDEX 01 00:35:74
  TRACK 23 AUDIO
    TITLE "0:"
    INDEX 01 00:37:30
  TRACK 24 AUDIO
    TITLE "3:cjc039_5092"
    INDEX 01 00:38:02
  TRACK 25 AUDIO
    TITLE "0:"
    INDEX 01 00:41:71
  TRACK 26 AUDIO
    TITLE "2:cjc039_5093"
    INDEX 01 00:43:46
  TRACK 27 AUDIO
    TITLE "0:"
    INDEX 01 00:44:61
  TRACK 28 AUDIO
    TITLE "3:cjc039_5094"
    INDEX 01 00:45:39
  TRACK 29 AUDIO
    TITLE "0:"
    INDEX 01 00:49:74
  TRACK 30 AUDIO
    TITLE "2:cjc039_5095"
    INDEX 01 00:51:52
  TRACK 31 AUDIO
    TITLE "0:"
    INDEX 01 00:53:17
  TRACK 32 AUDIO
    TITLE "3:cjc039_5096"
    INDEX 01 00:53:64
  TRACK 33 AUDIO
    TITLE "0:"
    INDEX 01 00:58:42
  TRACK 34 AUDIO
    TITLE "2:cjc039_5097"
    INDEX 01 01:00:12
  TRACK 35 AUDIO
    TITLE "0:"
    INDEX 01 01:01:21
  TRACK 36 AUDIO
    TITLE "3:cjc039_5098"
    INDEX 01 01:01:74
  TRACK 37 AUDIO
    TITLE "0:"
    INDEX 01 01:05:42
  TRACK 38 AUDIO
    TITLE "2:cjc039_5099"
    INDEX 01 01:07:14
  TRACK 39 AUDIO
    TITLE "0:"
    INDEX 01 01:08:38
  TRACK 40 AUDIO
    TITLE "3:cjc039_5100"
    INDEX 01 01:09:12
  TRACK 41 AUDIO
    TITLE "0:"
    INDEX 01 01:13:24
  TRACK 42 AUDIO
    TITLE "2:cjc039_5101"
    INDEX 01 01:14:72
  TRACK 43 AUDIO
    TITLE "0:"
    INDEX 01 01:16:20
  TRACK 44 AUDIO
    TITLE "3:cjc039_5102"
    INDEX 01 01:16:63
  TRACK 45 AUDIO
    TITLE "0:"
    INDEX 01 01:20:36
  TRACK 46 AUDIO
    TITLE "2:cjc039_5103"
    INDEX 01 01:22:09
  TRACK 47 AUDIO
    TITLE "0:"
    INDEX 01 01:23:36
  TRACK 48 AUDIO
    TITLE "3:cjc039_5104"
    INDEX 01 01:24:08
  TRACK 49 AUDIO
    TITLE "0:"
    INDEX 01 01:28:18
  TRACK 50 AUDIO
    TITLE "2:cjc039_5105"
    INDEX 01 01:29:68
  TRACK 51 AUDIO
    TITLE "0:"
    INDEX 01 01:31:06
  TRACK 52 AUDIO
    TITLE "3:cjc039_5106"
    INDEX 01 01:31:51
  TRACK 53 AUDIO
    TITLE "0:"
    INDEX 01 01:35:02
  TRACK 54 AUDIO
    TITLE "2:cjc039_5107"
    INDEX 01 01:36:48
  TRACK 55 AUDIO
    TITLE "0:"
    INDEX 01 01:38:08
  TRACK 56 AUDIO
    TITLE "3:cjc039_5108"
    INDEX 01 01:38:51
  TRACK 57 AUDIO
    TITLE "0:"
    INDEX 01 01:42:24
  TRACK 58 AUDIO
    TITLE "2:cjc039_5109"
    INDEX 01 01:43:74
  TRACK 59 AUDIO
    TITLE "0:"
    INDEX 01 01:45:08
  TRACK 60 AUDIO
    TITLE "3:cjc039_5110"
    INDEX 01 01:45:61
  TRACK 61 AUDIO
    TITLE "0:"
    INDEX 01 01:50:29
  TRACK 62 AUDIO
    TITLE "2:cjc039_5111"
    INDEX 01 01:52:02
  TRACK 63 AUDIO
    TITLE "0:"
    INDEX 01 01:53:12
  TRACK 64 AUDIO
    TITLE "3:cjc039_5112"
    INDEX 01 01:53:65
  TRACK 65 AUDIO
    TITLE "0:"
    INDEX 01 01:58:03
  TRACK 66 AUDIO
    TITLE "2:cjc039_5113"
    INDEX 01 01:59:51
  TRACK 67 AUDIO
    TITLE "0:"
    INDEX 01 02:00:53
  TRACK 68 AUDIO
    TITLE "3:cjc039_5114"
    INDEX 01 02:01:33
  TRACK 69 AUDIO
    TITLE "0:"
    INDEX 01 02:04:62
  TRACK 70 AUDIO
    TITLE "2:cjc039_5115"
    INDEX 01 02:06:40
  TRACK 71 AUDIO
    TITLE "0:"
    INDEX 01 02:07:59
  TRACK 72 AUDIO
    TITLE "3:cjc039_5116"
    INDEX 01 02:08:35
  TRACK 73 AUDIO
    TITLE "0:"
    INDEX 01 02:12:09
  TRACK 74 AUDIO
    TITLE "2:cjc039_5117"
    INDEX 01 02:13:59
  TRACK 75 AUDIO
    TITLE "0:"
    INDEX 01 02:15:05
  TRACK 76 AUDIO
    TITLE "3:cjc039_5118"
    INDEX 01 02:15:60
  TRACK 77 AUDIO
    TITLE "0:"
    INDEX 01 02:19:50
  TRACK 78 AUDIO
    TITLE "2:cjc039_5119"
    INDEX 01 02:21:22
  TRACK 79 AUDIO
    TITLE "0:"
    INDEX 01 02:22:51
  TRACK 80 AUDIO
    TITLE "3:cjc039_5120"
    INDEX 01 02:23:21
  TRACK 81 AUDIO
    TITLE "0:"
    INDEX 01 02:27:32
